<svg width="1100" height="278" viewBox="0 0 1100 278" fill="none" xmlns="http://www.w3.org/2000/svg">
<g clip-path="url(#clip0_7_111)">
<path d="M525 111.921C525 111.921 515 111.921 528 111.921C541 111.921 545.5 131.5 545.5 131.5V142V182" stroke="#E2E0E0" stroke-width="2.3"/>
<path d="M852.957 0C852.957 0 853 52.4954 853 83.42C853 114.344 820.507 114.166 810.6 114.344C810.6 114.344 563.585 114.344 556.063 114.344C556.063 114.344 561.209 114.344 553.292 114.344C545.375 114.344 543 124.461 543 124.461M556.063 119C544.979 118.498 544.979 129 544.979 129M555.5 124C544.416 123.498 545.5 137 545.5 137" stroke="#E2E0E0" stroke-width="2.3"/>
<path d="M219.045 0C219.045 0 219 49.301 219 80.111C219 110.921 252.928 110.743 263.271 110.921L396.136 111.46L529 112" stroke="#E2E0E0" stroke-width="2.3"/>
<path d="M123 277C123 277 123 258.069 123 227.035C123 196 155.04 196.179 164.808 196L405 196" stroke="#E2E0E0" stroke-width="2.3"/>
<path d="M949 278C949 278 949 259.069 949 228.035C949 197 918.232 197.179 908.853 197H682" stroke="#E2E0E0" stroke-width="2.3"/>
<path d="M402.946 276C402.946 276 402.946 255.522 402.946 224.712C402.946 193.902 443.988 194.08 456.5 193.902C456.5 193.902 503.5 193.5 520.5 193.5C537.5 193.5 536.5 188 536.5 188" stroke="#E2E0E0" stroke-width="2.3"/>
<path d="M683.054 277C683.054 277 683.054 255.522 683.054 224.712C683.054 193.902 642.012 194.08 629.5 193.902C629.5 193.902 544.5 195 543.5 193.5" stroke="#E2E0E0" stroke-width="2.3"/>
<path d="M524 116C535.5 116 540 133.5 540 133.5L541 142V182M535.5 182V142L534.5 134C534.5 134 532.725 121 518 121" stroke="#E2E0E0" stroke-width="2.3"/>
<path d="M857.875 -1C857.875 -1 858.326 83.4566 857.513 87.1698C856.699 90.8828 856.69 119 812.369 119H554.5" stroke="#E2E0E0" stroke-width="2.3"/>
<path d="M213.124 0C213.124 0 212.674 80.4515 213.487 84.1652C214.301 87.8788 214.309 116 258.631 116L525 116" stroke="#E2E0E0" stroke-width="2.3"/>
<path d="M118.331 277C118.331 277 117.586 226.608 118.331 222.888C119.075 219.169 119.084 191.005 159.652 191.005C200.219 191.005 335.651 191 412.5 191" stroke="#E2E0E0" stroke-width="2.3"/>
<path d="M953.678 278C953.678 278 954.402 227.608 953.678 223.888C952.954 220.169 952.947 192.005 913.493 192.005C874.048 192.005 748.731 192 674 192" stroke="#E2E0E0" stroke-width="2.3"/>
<path d="M397.495 276.5C397.495 276.5 396.496 224.538 397.495 220.84C398.495 217.142 398.507 189.142 453.001 189.142C507.495 189.142 507.5 189 520.5 189C533.5 189 535.5 182.5 535.5 182.5" stroke="#E2E0E0" stroke-width="2.3"/>
<path d="M688.505 277C688.505 277 689.504 224.538 688.505 220.84C687.505 217.142 687.994 190 633.5 190C579.006 190 651.23 190 548 190" stroke="#E2E0E0" stroke-width="2.3"/>
<path d="M863 -1V86.8024C863 86.8024 863 124 818.43 124H553" stroke="#E2E0E0" stroke-width="2.3"/>
<path d="M208 0L208 82.8024C208 82.8024 208 120 253.702 120C359.989 120 411.713 121 518 121" stroke="#E2E0E0" stroke-width="2.3"/>
<path d="M112 277V223.906C112 223.906 112 186.503 147.595 186.503C183.189 186.503 361.801 186 428 186" stroke="#E2E0E0" stroke-width="2.3"/>
<path d="M959 278V224.906C959 224.906 959 187.503 920.95 187.503C882.907 187.503 725.76 187 655 187" stroke="#E2E0E0" stroke-width="2.3"/>
<path d="M391 276.5V223.406C391 223.406 391 184.503 446.698 184.503C502.395 184.503 507.5 184.5 520.5 184.5C533.5 184.5 535.5 173 535.5 173" stroke="#E2E0E0" stroke-width="2.3"/>
<path d="M695 277V221.698C695 221.698 695.006 186 639.5 186C583.994 186 661.23 186 558 186" stroke="#E2E0E0" stroke-width="2.3"/>
<path d="M557.469 187.15L558.619 187.181L558.681 184.881L557.531 184.85L557.469 187.15ZM544.35 182C544.35 183.626 545.036 184.839 546.15 185.655C547.196 186.421 548.554 186.791 549.881 186.98C551.228 187.173 552.678 187.198 553.998 187.186C555.364 187.174 556.523 187.124 557.469 187.15L557.531 184.85C556.536 184.824 555.225 184.875 553.977 184.886C552.683 184.898 551.375 184.871 550.207 184.704C549.02 184.534 548.105 184.236 547.509 183.799C546.979 183.411 546.65 182.883 546.65 182H544.35Z" fill="#E2E0E0"/>
<path d="M548.469 191.15L549.619 191.181L549.681 188.881L548.531 188.85L548.469 191.15ZM539.85 182C539.85 187.692 544.017 191.029 548.469 191.15L548.531 188.85C545.219 188.761 542.15 186.342 542.15 182H539.85Z" fill="#E2E0E0"/>
<path d="M543.241 194.621L544.362 194.879L544.879 192.638L543.759 192.379L543.241 194.621ZM534.35 182C534.35 184.601 534.735 187.333 536.066 189.643C537.426 192.002 539.705 193.805 543.241 194.621L543.759 192.379C540.795 191.695 539.074 190.257 538.059 188.495C537.015 186.684 536.65 184.416 536.65 182H534.35Z" fill="#E2E0E0"/>
<path fill-rule="evenodd" clip-rule="evenodd" d="M538.65 88.3969V88.5C538.65 97.7 533.902 103.873 529.229 107.702C526.895 109.614 524.567 110.956 522.823 111.82C521.95 112.252 521.219 112.567 520.703 112.775C520.445 112.879 520.24 112.956 520.097 113.008C520.026 113.034 519.97 113.054 519.931 113.068L519.884 113.084L519.871 113.089L519.866 113.09L519.865 113.091C519.864 113.091 519.864 113.091 519.5 112C519.136 110.909 519.136 110.909 519.136 110.909L519.142 110.907L519.173 110.896C519.202 110.886 519.247 110.87 519.307 110.848C519.428 110.804 519.61 110.736 519.844 110.641C520.312 110.453 520.988 110.162 521.802 109.759C523.433 108.951 525.605 107.698 527.771 105.923C532.099 102.377 536.35 96.8 536.35 88.5V88.3969V88.2925V88.1869V88.0801V87.9721V87.8629V87.7525V87.641V87.5282V87.4143V87.2992V87.183V87.0656V86.947V86.8273V86.7064V86.5844V86.4613V86.3371V86.2117V86.0853V85.9577V85.829V85.6992V85.5684V85.4364V85.3034V85.1693V85.0341V84.8978V84.7605V84.6222V84.4828V84.3424V84.2009V84.0584V83.9149V83.7703V83.6248V83.4782V83.3306V83.1821V83.0325V82.882V82.7304V82.5779V82.4245V82.2701V82.1147V81.9584V81.8011V81.6428V81.4837V81.3236V81.1626V81.0007V80.8378V80.6741V80.5094V80.3439V80.1775V80.0101V79.8419V79.6729V79.5029V79.3321V79.1604V78.9879V78.8146V78.6404V78.4653V78.2895V78.1128V77.9353V77.7569V77.5778V77.3979V77.2172V77.0356V76.8533V76.6703V76.4864V76.3018V76.1164V75.9303V75.7434V75.5557V75.3674V75.1782V74.9884V74.7978V74.6066V74.4146V74.2219V74.0285V73.8344V73.6396V73.4441V73.2479V73.0511V72.8536V72.6554V72.4566V72.2572V72.0571V71.8563V71.6549V71.4529V71.2503V71.047V70.8431V70.6387V70.4336V70.2279V70.0216V69.8148V69.6074V69.3994V69.1908V68.9817V68.772V68.5617V68.351V68.1396V67.9278V67.7154V67.5025V67.2891V67.0751V66.8607V66.6457V66.4303V66.2144V65.9979V65.781V65.5637V65.3458V65.1275V64.9088V64.6896V64.4699V64.2498V64.0293V63.8084V63.587V63.3652V63.143V62.9204V62.6974V62.474V62.2502V62.026V61.8014V61.5765V61.3512V61.1255V60.8995V60.6731V60.4464V60.2194V59.992V59.7643V59.5362V59.3079V59.0792V58.8502V58.6209V58.3914V58.1615V57.9314V57.7009V57.4702V57.2393V57.0081V56.7766V56.5448V56.3129V56.0807V55.8482V55.6155V55.3826V55.1495V54.9162V54.6826V54.4489V54.215V53.9809V53.7466V53.5121V53.2774V53.0426V52.8076V52.5725V52.3372V52.1018V51.8662V51.6305V51.3946V51.1587V50.9226V50.6864V50.4501V50.2137V49.9773V49.7407V49.504V49.2673V49.0305V48.7936V48.5567V48.3197V48.0826V47.8455V47.6084V47.3712V47.1341V46.8968V46.6596V46.4224V46.1851V45.9479V45.7106V45.4734V45.2362V44.999V44.7619V44.5247V44.2876V44.0506V43.8136V43.5767V43.3398V43.103V42.8662V42.6296V42.393V42.1565V41.9201V41.6838V41.4476V41.2115V40.9756V40.7397V40.504V40.2685V40.033V39.7977V39.5626V39.3276V39.0928V38.8581V38.6236V38.3893V38.1552V37.9212V37.6875V37.454V37.2206V36.9875V36.7546V36.5219V36.2895V36.0572V35.8252V35.5935V35.362V35.1308V34.8998V34.6691V34.4387V34.2085V33.9787V33.7491V33.5198V33.2908V33.0621V32.8338V32.6057V32.378V32.1506V31.9235V31.6968V31.4704V31.2444V31.0187V30.7934V30.5684V30.3439V30.1197V29.8959V29.6724V29.4494V29.2268V29.0046V28.7828V28.5614V28.3404V28.1199V27.8998V27.6801V27.4609V27.2421V27.0238V26.806V26.5886V26.3717V26.1552V25.9393V25.7238V25.5089V25.2944V25.0804V24.867V24.6541V24.4417V24.2298V24.0185V23.8077V23.5974V23.3877V23.1785V22.97V22.7619V22.5545V22.3476V22.1414V21.9357V21.7306V21.5261V21.3222V21.1189V20.9162V20.7142V20.5128V20.312V20.1119V19.9124V19.7136V19.5154V19.3179V19.121V18.9248V18.7293V18.5345V18.3404V18.147V17.9543V17.7622V17.5709V17.3803V17.1905V17.0013V16.8129V16.6253V16.4384V16.2522V16.0668V15.8821V15.6983V15.5152V15.3328V15.1513V14.9705V14.7906V14.6114V14.4331V14.2556V14.0788V13.903V13.7279V13.5537V13.3803V13.2077V13.036V12.8652V12.6952V12.5261V12.3579V12.1906V12.0241V11.8585V11.6938V11.5301V11.3672V11.2052V11.0442V10.8841V10.7249V10.5666V10.4093V10.253V10.0976V9.9431V9.7896V9.63708V9.48553V9.33496V9.18537V9.03677V8.88918V8.74258V8.59699V8.45241V8.30885V8.16632V8.02481V7.88434V7.74491V7.60653V7.46919V7.33292V7.19771V7.06356V6.9305V6.79851V6.6676V6.53779V6.40907V6.28146V6.15495V6.02955V5.90528V5.78213V5.6601V5.53922V5.41947V5.30087V5.18342V5.06713V4.95201V4.83805V4.72527V4.61366V4.50324V4.39401V4.28598V4.17915V4.07353V3.96912V3.86593V3.76397V3.66323V3.56373V3.46547V3.36846V3.2727V3.1782V3.08496V2.99299V2.90229V2.81288V2.72475V2.63791V2.55237V2.46813V2.38519V2.30358V2.22328V2.1443V2.06665V1.99035V1.91538V1.84175V1.76949V1.69857V1.62903V1.56085V1.49404V1.42862V1.36458V1.30193V1.24068V1.18083V1.12239V1.06537V1.00976V0.955579V0.902827V0.851511V0.801636V0.753208V0.706232V0.660715V0.616661V0.574077V0.532967V0.493338V0.455194V0.418543V0.383388V0.349735V0.317591V0.286961V0.25785V0.230264V0.204208V0.179689V0.156711V0.13528V0.115402V0.0970816V0.0803255V0.0651388V0.051527V0.0394958V0.0290507V0.0201973V0.0129411V0.00728773V0.0032427V0.000811603C536.35 0.000270844 536.35 0 537.5 0C538.65 0 538.65 0.000270844 538.65 0.000811603V0.0032427V0.00728773V0.0129411V0.0201973V0.0290507V0.0394958V0.051527V0.0651388V0.0803255V0.0970816V0.115402V0.13528V0.156711V0.179689V0.204208V0.230264V0.25785V0.286961V0.317591V0.349735V0.383388V0.418543V0.455194V0.493338V0.532967V0.574077V0.616661V0.660715V0.706232V0.753208V0.801636V0.851511V0.902827V0.955579V1.00976V1.06537V1.12239V1.18083V1.24068V1.30193V1.36458V1.42862V1.49404V1.56085V1.62903V1.69857V1.76949V1.84175V1.91538V1.99035V2.06665V2.1443V2.22328V2.30358V2.38519V2.46813V2.55237V2.63791V2.72475V2.81288V2.90229V2.99299V3.08496V3.1782V3.2727V3.36846V3.46547V3.56373V3.66323V3.76397V3.86593V3.96912V4.07353V4.17915V4.28598V4.39401V4.50324V4.61366V4.72527V4.83805V4.95201V5.06713V5.18342V5.30087V5.41947V5.53922V5.6601V5.78213V5.90528V6.02955V6.15495V6.28146V6.40907V6.53779V6.6676V6.79851V6.9305V7.06356V7.19771V7.33292V7.46919V7.60653V7.74491V7.88434V8.02481V8.16632V8.30885V8.45241V8.59699V8.74258V8.88918V9.03677V9.18537V9.33496V9.48553V9.63708V9.7896V9.9431V10.0976V10.253V10.4093V10.5666V10.7249V10.8841V11.0442V11.2052V11.3672V11.5301V11.6938V11.8585V12.0241V12.1906V12.3579V12.5261V12.6952V12.8652V13.036V13.2077V13.3803V13.5537V13.7279V13.903V14.0788V14.2556V14.4331V14.6114V14.7906V14.9705V15.1513V15.3328V15.5152V15.6983V15.8821V16.0668V16.2522V16.4384V16.6253V16.8129V17.0013V17.1905V17.3803V17.5709V17.7622V17.9543V18.147V18.3404V18.5345V18.7293V18.9248V19.121V19.3179V19.5154V19.7136V19.9124V20.1119V20.312V20.5128V20.7142V20.9162V21.1189V21.3222V21.5261V21.7306V21.9357V22.1414V22.3476V22.5545V22.7619V22.97V23.1785V23.3877V23.5974V23.8077V24.0185V24.2298V24.4417V24.6541V24.867V25.0804V25.2944V25.5089V25.7238V25.9393V26.1552V26.3717V26.5886V26.806V27.0238V27.2421V27.4609V27.6801V27.8998V28.1199V28.3404V28.5614V28.7828V29.0046V29.2268V29.4494V29.6724V29.8959V30.1197V30.3439V30.5684V30.7934V31.0187V31.2444V31.4704V31.6968V31.9235V32.1506V32.378V32.6057V32.8338V33.0621V33.2908V33.5198V33.7491V33.9787V34.2085V34.4387V34.6691V34.8998V35.1308V35.362V35.5935V35.8252V36.0572V36.2895V36.5219V36.7546V36.9875V37.2206V37.454V37.6875V37.9212V38.1552V38.3893V38.6236V38.8581V39.0928V39.3276V39.5626V39.7977V40.033V40.2685V40.504V40.7397V40.9756V41.2115V41.4476V41.6838V41.9201V42.1565V42.393V42.6296V42.8662V43.103V43.3398V43.5767V43.8136V44.0506V44.2876V44.5247V44.7619V44.999V45.2362V45.4734V45.7106V45.9479V46.1851V46.4224V46.6596V46.8968V47.1341V47.3712V47.6084V47.8455V48.0826V48.3197V48.5567V48.7936V49.0305V49.2673V49.504V49.7407V49.9773V50.2137V50.4501V50.6864V50.9226V51.1587V51.3946V51.6305V51.8662V52.1018V52.3372V52.5725V52.8076V53.0426V53.2774V53.5121V53.7466V53.9809V54.215V54.4489V54.6826V54.9162V55.1495V55.3826V55.6155V55.8482V56.0807V56.3129V56.5448V56.7766V57.0081V57.2393V57.4702V57.7009V57.9314V58.1615V58.3914V58.6209V58.8502V59.0792V59.3079V59.5362V59.7643V59.992V60.2194V60.4464V60.6731V60.8995V61.1255V61.3512V61.5765V61.8014V62.026V62.2502V62.474V62.6974V62.9204V63.143V63.3652V63.587V63.8084V64.0293V64.2498V64.4699V64.6896V64.9088V65.1275V65.3458V65.5637V65.781V65.9979V66.2144V66.4303V66.6457V66.8607V67.0751V67.2891V67.5025V67.7154V67.9278V68.1396V68.351V68.5617V68.772V68.9817V69.1908V69.3994V69.6074V69.8148V70.0216V70.2279V70.4336V70.6387V70.8431V71.047V71.2503V71.4529V71.6549V71.8563V72.0571V72.2572V72.4566V72.6554V72.8536V73.0511V73.2479V73.4441V73.6396V73.8344V74.0285V74.2219V74.4146V74.6066V74.7978V74.9884V75.1782V75.3674V75.5557V75.7434V75.9303V76.1164V76.3018V76.4864V76.6703V76.8533V77.0356V77.2172V77.3979V77.5778V77.7569V77.9353V78.1128V78.2895V78.4653V78.6404V78.8146V78.9879V79.1604V79.3321V79.5029V79.6729V79.8419V80.0101V80.1775V80.3439V80.5094V80.6741V80.8378V81.0007V81.1626V81.3236V81.4837V81.6428V81.8011V81.9584V82.1147V82.2701V82.4245V82.5779V82.7304V82.882V83.0325V83.1821V83.3306V83.4782V83.6248V83.7703V83.9149V84.0584V84.2009V84.3424V84.4828V84.6222V84.7605V84.8978V85.0341V85.1693V85.3034V85.4364V85.5684V85.6992V85.829V85.9577V86.0853V86.2117V86.3371V86.4613V86.5844V86.7064V86.8273V86.947V87.0656V87.183V87.2992V87.4143V87.5282V87.641V87.7525V87.8629V87.9721V88.0801V88.1869V88.2925V88.3969ZM543.65 88.5V88.3969V88.2925V88.1869V88.0801V87.9721V87.8629V87.7525V87.641V87.5282V87.4143V87.2992V87.183V87.0656V86.947V86.8273V86.7064V86.5844V86.4613V86.3371V86.2117V86.0853V85.9577V85.829V85.6992V85.5684V85.4364V85.3034V85.1693V85.0341V84.8978V84.7605V84.6222V84.4828V84.3424V84.2009V84.0584V83.9149V83.7703V83.6248V83.4782V83.3306V83.1821V83.0325V82.882V82.7304V82.5779V82.4245V82.2701V82.1147V81.9584V81.8011V81.6428V81.4837V81.3236V81.1626V81.0007V80.8378V80.6741V80.5094V80.3439V80.1775V80.0101V79.8419V79.6729V79.5029V79.3321V79.1604V78.9879V78.8146V78.6404V78.4653V78.2895V78.1128V77.9353V77.7569V77.5778V77.3979V77.2172V77.0356V76.8533V76.6703V76.4864V76.3018V76.1164V75.9303V75.7434V75.5557V75.3674V75.1782V74.9884V74.7978V74.6066V74.4146V74.2219V74.0285V73.8344V73.6396V73.4441V73.2479V73.0511V72.8536V72.6554V72.4566V72.2572V72.0571V71.8563V71.6549V71.4529V71.2503V71.047V70.8431V70.6387V70.4336V70.2279V70.0216V69.8148V69.6074V69.3994V69.1908V68.9817V68.772V68.5617V68.351V68.1396V67.9278V67.7154V67.5025V67.2891V67.0751V66.8607V66.6457V66.4303V66.2144V65.9979V65.781V65.5637V65.3458V65.1275V64.9088V64.6896V64.4699V64.2498V64.0293V63.8084V63.587V63.3652V63.143V62.9204V62.6974V62.474V62.2502V62.026V61.8014V61.5765V61.3512V61.1255V60.8995V60.6731V60.4464V60.2194V59.992V59.7643V59.5362V59.3079V59.0792V58.8502V58.6209V58.3914V58.1615V57.9314V57.7009V57.4702V57.2393V57.0081V56.7766V56.5448V56.3129V56.0807V55.8482V55.6155V55.3826V55.1495V54.9162V54.6826V54.4489V54.215V53.9809V53.7466V53.5121V53.2774V53.0426V52.8076V52.5725V52.3372V52.1018V51.8662V51.6305V51.3946V51.1587V50.9226V50.6864V50.4501V50.2137V49.9773V49.7407V49.504V49.2673V49.0305V48.7936V48.5567V48.3197V48.0826V47.8455V47.6084V47.3712V47.1341V46.8968V46.6596V46.4224V46.1851V45.9479V45.7106V45.4734V45.2362V44.999V44.7619V44.5247V44.2876V44.0506V43.8136V43.5767V43.3398V43.103V42.8662V42.6296V42.393V42.1565V41.9201V41.6838V41.4476V41.2115V40.9756V40.7397V40.504V40.2685V40.033V39.7977V39.5626V39.3276V39.0928V38.8581V38.6236V38.3893V38.1552V37.9212V37.6875V37.454V37.2206V36.9875V36.7546V36.5219V36.2895V36.0572V35.8252V35.5935V35.362V35.1308V34.8998V34.6691V34.4387V34.2085V33.9787V33.7491V33.5198V33.2908V33.0621V32.8338V32.6057V32.378V32.1506V31.9235V31.6968V31.4704V31.2444V31.0187V30.7934V30.5684V30.3439V30.1197V29.8959V29.6724V29.4494V29.2268V29.0046V28.7828V28.5614V28.3404V28.1199V27.8998V27.6801V27.4609V27.2421V27.0238V26.806V26.5886V26.3717V26.1552V25.9393V25.7238V25.5089V25.2944V25.0804V24.867V24.6541V24.4417V24.2298V24.0185V23.8077V23.5974V23.3877V23.1785V22.97V22.7619V22.5545V22.3476V22.1414V21.9357V21.7306V21.5261V21.3222V21.1189V20.9162V20.7142V20.5128V20.312V20.1119V19.9124V19.7136V19.5154V19.3179V19.121V18.9248V18.7293V18.5345V18.3404V18.147V17.9543V17.7622V17.5709V17.3803V17.1905V17.0013V16.8129V16.6253V16.4384V16.2522V16.0668V15.8821V15.6983V15.5152V15.3328V15.1513V14.9705V14.7906V14.6114V14.4331V14.2556V14.0788V13.903V13.7279V13.5537V13.3803V13.2077V13.036V12.8652V12.6952V12.5261V12.3579V12.1906V12.0241V11.8585V11.6938V11.5301V11.3672V11.2052V11.0442V10.8841V10.7249V10.5666V10.4093V10.253V10.0976V9.9431V9.7896V9.63708V9.48553V9.33496V9.18537V9.03677V8.88918V8.74258V8.59699V8.45241V8.30885V8.16632V8.02481V7.88434V7.74491V7.60653V7.46919V7.33292V7.19771V7.06356V6.9305V6.79851V6.6676V6.53779V6.40907V6.28146V6.15495V6.02955V5.90528V5.78213V5.6601V5.53922V5.41947V5.30087V5.18342V5.06713V4.95201V4.83805V4.72527V4.61366V4.50324V4.39401V4.28598V4.17915V4.07353V3.96912V3.86593V3.76397V3.66323V3.56373V3.46547V3.36846V3.2727V3.1782V3.08496V2.99299V2.90229V2.81288V2.72475V2.63791V2.55237V2.46813V2.38519V2.30358V2.22328V2.1443V2.06665V1.99035V1.91538V1.84175V1.76949V1.69857V1.62903V1.56085V1.49404V1.42862V1.36458V1.30193V1.24068V1.18083V1.12239V1.06537V1.00976V0.955579V0.902827V0.851511V0.801636V0.753208V0.706232V0.660715V0.616661V0.574077V0.532967V0.493338V0.455194V0.418543V0.383388V0.349735V0.317591V0.286961V0.25785V0.230264V0.204208V0.179689V0.156711V0.13528V0.115402V0.0970816V0.0803255V0.0651388V0.051527V0.0394958V0.0290507V0.0201973V0.0129411V0.00728773V0.0032427V0.000811603C543.65 0.000270844 543.65 0 542.5 0C541.35 0 541.35 0.000270844 541.35 0.000811603V0.0032427V0.00728773V0.0129411V0.0201973V0.0290507V0.0394958V0.051527V0.0651388V0.0803255V0.0970816V0.115402V0.13528V0.156711V0.179689V0.204208V0.230264V0.25785V0.286961V0.317591V0.349735V0.383388V0.418543V0.455194V0.493338V0.532967V0.574077V0.616661V0.660715V0.706232V0.753208V0.801636V0.851511V0.902827V0.955579V1.00976V1.06537V1.12239V1.18083V1.24068V1.30193V1.36458V1.42862V1.49404V1.56085V1.62903V1.69857V1.76949V1.84175V1.91538V1.99035V2.06665V2.1443V2.22328V2.30358V2.38519V2.46813V2.55237V2.63791V2.72475V2.81288V2.90229V2.99299V3.08496V3.1782V3.2727V3.36846V3.46547V3.56373V3.66323V3.76397V3.86593V3.96912V4.07353V4.17915V4.28598V4.39401V4.50324V4.61366V4.72527V4.83805V4.95201V5.06713V5.18342V5.30087V5.41947V5.53922V5.6601V5.78213V5.90528V6.02955V6.15495V6.28146V6.40907V6.53779V6.6676V6.79851V6.9305V7.06356V7.19771V7.33292V7.46919V7.60653V7.74491V7.88434V8.02481V8.16632V8.30885V8.45241V8.59699V8.74258V8.88918V9.03677V9.18537V9.33496V9.48553V9.63708V9.7896V9.9431V10.0976V10.253V10.4093V10.5666V10.7249V10.8841V11.0442V11.2052V11.3672V11.5301V11.6938V11.8585V12.0241V12.1906V12.3579V12.5261V12.6952V12.8652V13.036V13.2077V13.3803V13.5537V13.7279V13.903V14.0788V14.2556V14.4331V14.6114V14.7906V14.9705V15.1513V15.3328V15.5152V15.6983V15.8821V16.0668V16.2522V16.4384V16.6253V16.8129V17.0013V17.1905V17.3803V17.5709V17.7622V17.9543V18.147V18.3404V18.5345V18.7293V18.9248V19.121V19.3179V19.5154V19.7136V19.9124V20.1119V20.312V20.5128V20.7142V20.9162V21.1189V21.3222V21.5261V21.7306V21.9357V22.1414V22.3476V22.5545V22.7619V22.97V23.1785V23.3877V23.5974V23.8077V24.0185V24.2298V24.4417V24.6541V24.867V25.0804V25.2944V25.5089V25.7238V25.9393V26.1552V26.3717V26.5886V26.806V27.0238V27.2421V27.4609V27.6801V27.8998V28.1199V28.3404V28.5614V28.7828V29.0046V29.2268V29.4494V29.6724V29.8959V30.1197V30.3439V30.5684V30.7934V31.0187V31.2444V31.4704V31.6968V31.9235V32.1506V32.378V32.6057V32.8338V33.0621V33.2908V33.5198V33.7491V33.9787V34.2085V34.4387V34.6691V34.8998V35.1308V35.362V35.5935V35.8252V36.0572V36.2895V36.5219V36.7546V36.9875V37.2206V37.454V37.6875V37.9212V38.1552V38.3893V38.6236V38.8581V39.0928V39.3276V39.5626V39.7977V40.033V40.2685V40.504V40.7397V40.9756V41.2115V41.4476V41.6838V41.9201V42.1565V42.393V42.6296V42.8662V43.103V43.3398V43.5767V43.8136V44.0506V44.2876V44.5247V44.7619V44.999V45.2362V45.4734V45.7106V45.9479V46.1851V46.4224V46.6596V46.8968V47.1341V47.3712V47.6084V47.8455V48.0826V48.3197V48.5567V48.7936V49.0305V49.2673V49.504V49.7407V49.9773V50.2137V50.4501V50.6864V50.9226V51.1587V51.3946V51.6305V51.8662V52.1018V52.3372V52.5725V52.8076V53.0426V53.2774V53.5121V53.7466V53.9809V54.215V54.4489V54.6826V54.9162V55.1495V55.3826V55.6155V55.8482V56.0807V56.3129V56.5448V56.7766V57.0081V57.2393V57.4702V57.7009V57.9314V58.1615V58.3914V58.6209V58.8502V59.0792V59.3079V59.5362V59.7643V59.992V60.2194V60.4464V60.6731V60.8995V61.1255V61.3512V61.5765V61.8014V62.026V62.2502V62.474V62.6974V62.9204V63.143V63.3652V63.587V63.8084V64.0293V64.2498V64.4699V64.6896V64.9088V65.1275V65.3458V65.5637V65.781V65.9979V66.2144V66.4303V66.6457V66.8607V67.0751V67.2891V67.5025V67.7154V67.9278V68.1396V68.351V68.5617V68.772V68.9817V69.1908V69.3994V69.6074V69.8148V70.0216V70.2279V70.4336V70.6387V70.8431V71.047V71.2503V71.4529V71.6549V71.8563V72.0571V72.2572V72.4566V72.6554V72.8536V73.0511V73.2479V73.4441V73.6396V73.8344V74.0285V74.2219V74.4146V74.6066V74.7978V74.9884V75.1782V75.3674V75.5557V75.7434V75.9303V76.1164V76.3018V76.4864V76.6703V76.8533V77.0356V77.2172V77.3979V77.5778V77.7569V77.9353V78.1128V78.2895V78.4653V78.6404V78.8146V78.9879V79.1604V79.3321V79.5029V79.6729V79.8419V80.0101V80.1775V80.3439V80.5094V80.6741V80.8378V81.0007V81.1626V81.3236V81.4837V81.6428V81.8011V81.9584V82.1147V82.2701V82.4245V82.5779V82.7304V82.882V83.0325V83.1821V83.3306V83.4782V83.6248V83.7703V83.9149V84.0584V84.2009V84.3424V84.4828V84.6222V84.7605V84.8978V85.0341V85.1693V85.3034V85.4364V85.5684V85.6992V85.829V85.9577V86.0853V86.2117V86.3371V86.4613V86.5844V86.7064V86.8273V86.947V87.0656V87.183V87.2992V87.4143V87.5282V87.641V87.7525V87.8629V87.9721V88.0801V88.1869V88.2925V88.3969V88.5C541.35 96.8943 537.885 102.492 534.43 106.006C532.696 107.77 530.961 109.011 529.663 109.809C529.015 110.208 528.478 110.495 528.109 110.679C527.924 110.772 527.781 110.839 527.687 110.881C527.641 110.903 527.606 110.918 527.584 110.927L527.562 110.937L527.559 110.938C527.56 110.938 527.56 110.937 528 112C528.44 113.063 528.44 113.062 528.441 113.062L528.443 113.061L528.447 113.06L528.459 113.055L528.499 113.037C528.532 113.023 528.579 113.002 528.638 112.975C528.757 112.922 528.926 112.842 529.137 112.737C529.561 112.525 530.157 112.206 530.868 111.769C532.289 110.895 534.179 109.542 536.07 107.619C539.865 103.758 543.65 97.6057 543.65 88.5ZM548.65 87C548.65 95.2804 553.379 101.618 558.263 105.952C560.696 108.111 563.133 109.742 564.964 110.832C565.878 111.377 566.637 111.785 567.165 112.056C567.429 112.191 567.635 112.292 567.772 112.358C567.841 112.391 567.893 112.415 567.927 112.431L567.963 112.447L567.971 112.451L567.972 112.452C567.972 112.451 567.972 112.451 567.5 113.5C567.028 114.549 567.028 114.549 567.027 114.548L567.021 114.546L567.008 114.539L566.959 114.517C566.917 114.497 566.856 114.469 566.778 114.432C566.623 114.357 566.399 114.248 566.116 114.103C565.55 113.812 564.747 113.381 563.786 112.808C561.867 111.665 559.304 109.951 556.737 107.673C553.319 104.639 549.832 100.547 547.894 95.4161C546.638 100.939 544 105.106 541.36 108.077C539.54 110.123 537.721 111.602 536.352 112.571C535.667 113.056 535.093 113.416 534.685 113.656C534.482 113.776 534.319 113.866 534.205 113.928C534.148 113.959 534.103 113.983 534.071 114L534.033 114.019L534.021 114.025L534.017 114.027L534.015 114.028C534.015 114.028 534.014 114.029 533.5 113C532.986 111.971 532.985 111.972 532.985 111.972L532.988 111.97L533.009 111.959C533.03 111.948 533.064 111.931 533.11 111.906C533.2 111.857 533.339 111.78 533.518 111.674C533.876 111.463 534.395 111.139 535.023 110.694C536.279 109.805 537.96 108.439 539.64 106.548C542.994 102.776 546.35 96.9133 546.35 88.5V88.3969V88.2925V88.1869V88.0801V87.9721V87.8629V87.7525V87.641V87.5282V87.4143V87.2992V87.183V87.0656V87V86.947V86.8273V86.7064V86.5844V86.4613V86.3371V86.2117V86.0853V85.9577V85.829V85.6992V85.5684V85.4364V85.3034V85.1693V85.0341V84.8978V84.7605V84.6222V84.4828V84.3424V84.2009V84.0584V83.9149V83.7703V83.6248V83.4782V83.3306V83.1821V83.0325V82.882V82.7304V82.5779V82.4245V82.2701V82.1147V81.9584V81.8011V81.6428V81.4837V81.3236V81.1626V81.0007V80.8378V80.6741V80.5094V80.3439V80.1775V80.0101V79.8419V79.6729V79.5029V79.3321V79.1604V78.9879V78.8146V78.6404V78.4653V78.2895V78.1128V77.9353V77.7569V77.5778V77.3979V77.2172V77.0356V76.8533V76.6703V76.4864V76.3018V76.1164V75.9303V75.7434V75.5557V75.3674V75.1782V74.9884V74.7978V74.6066V74.4146V74.2219V74.0285V73.8344V73.6396V73.4441V73.2479V73.0511V72.8536V72.6554V72.4566V72.2572V72.0571V71.8563V71.6549V71.4529V71.2503V71.047V70.8431V70.6387V70.4336V70.2279V70.0216V69.8148V69.6074V69.3994V69.1908V68.9817V68.772V68.5617V68.351V68.1396V67.9278V67.7154V67.5025V67.2891V67.0751V66.8607V66.6457V66.4303V66.2144V65.9979V65.781V65.5637V65.3458V65.1275V64.9088V64.6896V64.4699V64.2498V64.0293V63.8084V63.587V63.3652V63.143V62.9204V62.6974V62.474V62.2502V62.026V61.8014V61.5765V61.3512V61.1255V60.8995V60.6731V60.4464V60.2194V59.992V59.7643V59.5362V59.3079V59.0792V58.8502V58.6209V58.3914V58.1615V57.9314V57.7009V57.4702V57.2393V57.0081V56.7766V56.5448V56.3129V56.0807V55.8482V55.6155V55.3826V55.1495V54.9162V54.6826V54.4489V54.215V53.9809V53.7466V53.5121V53.2774V53.0426V52.8076V52.5725V52.3372V52.1018V51.8662V51.6305V51.3946V51.1587V50.9226V50.6864V50.4501V50.2137V49.9773V49.7407V49.504V49.2673V49.0305V48.7936V48.5567V48.3197V48.0826V47.8455V47.6084V47.3712V47.1341V46.8968V46.6596V46.4224V46.1851V45.9479V45.7106V45.4734V45.2362V44.999V44.7619V44.5247V44.2876V44.0506V43.8136V43.5767V43.3398V43.103V42.8662V42.6296V42.393V42.1565V41.9201V41.6838V41.4476V41.2115V40.9756V40.7397V40.504V40.2685V40.033V39.7977V39.5626V39.3276V39.0928V38.8581V38.6236V38.3893V38.1552V37.9212V37.6875V37.454V37.2206V36.9875V36.7546V36.5219V36.2895V36.0572V35.8252V35.5935V35.362V35.1308V34.8998V34.6691V34.4387V34.2085V33.9787V33.7491V33.5198V33.2908V33.0621V32.8338V32.6057V32.378V32.1506V31.9235V31.6968V31.4704V31.2444V31.0187V30.7934V30.5684V30.3439V30.1197V29.8959V29.6724V29.4494V29.2268V29.0046V28.7828V28.5614V28.3404V28.1199V27.8998V27.6801V27.4609V27.2421V27.0238V26.806V26.5886V26.3717V26.1552V25.9393V25.7238V25.5089V25.2944V25.0804V24.867V24.6541V24.4417V24.2298V24.0185V23.8077V23.5974V23.3877V23.1785V22.97V22.7619V22.5545V22.3476V22.1414V21.9357V21.7306V21.5261V21.3222V21.1189V20.9162V20.7142V20.5128V20.312V20.1119V19.9124V19.7136V19.5154V19.3179V19.121V18.9248V18.7293V18.5345V18.3404V18.147V17.9543V17.7622V17.5709V17.3803V17.1905V17.0013V16.8129V16.6253V16.4384V16.2522V16.0668V15.8821V15.6983V15.5152V15.3328V15.1513V14.9705V14.7906V14.6114V14.4331V14.2556V14.0788V13.903V13.7279V13.5537V13.3803V13.2077V13.036V12.8652V12.6952V12.5261V12.3579V12.1906V12.0241V11.8585V11.6938V11.5301V11.3672V11.2052V11.0442V10.8841V10.7249V10.5666V10.4093V10.253V10.0976V9.9431V9.7896V9.63708V9.48553V9.33496V9.18537V9.03677V8.88918V8.74258V8.59699V8.45241V8.30885V8.16632V8.02481V7.88434V7.74491V7.60653V7.46919V7.33292V7.19771V7.06356V6.9305V6.79851V6.6676V6.53779V6.40907V6.28146V6.15495V6.02955V5.90528V5.78213V5.6601V5.53922V5.41947V5.30087V5.18342V5.06713V4.95201V4.83805V4.72527V4.61366V4.50324V4.39401V4.28598V4.17915V4.07353V3.96912V3.86593V3.76397V3.66323V3.56373V3.46547V3.36846V3.2727V3.1782V3.08496V2.99299V2.90229V2.81288V2.72475V2.63791V2.55237V2.46813V2.38519V2.30358V2.22328V2.1443V2.06665V1.99035V1.91538V1.84175V1.76949V1.69857V1.62903V1.56085V1.49404V1.42862V1.36458V1.30193V1.24068V1.18083V1.12239V1.06537V1.00976V0.955579V0.902827V0.851511V0.801636V0.753208V0.706232V0.660715V0.616661V0.574077V0.532967V0.493338V0.455194V0.418543V0.383388V0.349735V0.317591V0.286961V0.25785V0.230264V0.204208V0.179689V0.156711V0.13528V0.115402V0.0970816V0.0803255V0.0651388V0.051527V0.0394958V0.0290507V0.0201973V0.0129411V0.00728773V0.0032427V0.000811603C546.35 0.000270844 546.35 0 547.5 0C548.65 0 548.65 0.000270844 548.65 0.000811603V0.0032427V0.00728773V0.0129411V0.0201973V0.0290507V0.0394958V0.051527V0.0651388V0.0803255V0.0970816V0.115402V0.13528V0.156711V0.179689V0.204208V0.230264V0.25785V0.286961V0.317591V0.349735V0.383388V0.418543V0.455194V0.493338V0.532967V0.574077V0.616661V0.660715V0.706232V0.753208V0.801636V0.851511V0.902827V0.955579V1.00976V1.06537V1.12239V1.18083V1.24068V1.30193V1.36458V1.42862V1.49404V1.56085V1.62903V1.69857V1.76949V1.84175V1.91538V1.99035V2.06665V2.1443V2.22328V2.30358V2.38519V2.46813V2.55237V2.63791V2.72475V2.81288V2.90229V2.99299V3.08496V3.1782V3.2727V3.36846V3.46547V3.56373V3.66323V3.76397V3.86593V3.96912V4.07353V4.17915V4.28598V4.39401V4.50324V4.61366V4.72527V4.83805V4.95201V5.06713V5.18342V5.30087V5.41947V5.53922V5.6601V5.78213V5.90528V6.02955V6.15495V6.28146V6.40907V6.53779V6.6676V6.79851V6.9305V7.06356V7.19771V7.33292V7.46919V7.60653V7.74491V7.88434V8.02481V8.16632V8.30885V8.45241V8.59699V8.74258V8.88918V9.03677V9.18537V9.33496V9.48553V9.63708V9.7896V9.9431V10.0976V10.253V10.4093V10.5666V10.7249V10.8841V11.0442V11.2052V11.3672V11.5301V11.6938V11.8585V12.0241V12.1906V12.3579V12.5261V12.6952V12.8652V13.036V13.2077V13.3803V13.5537V13.7279V13.903V14.0788V14.2556V14.4331V14.6114V14.7906V14.9705V15.1513V15.3328V15.5152V15.6983V15.8821V16.0668V16.2522V16.4384V16.6253V16.8129V17.0013V17.1905V17.3803V17.5709V17.7622V17.9543V18.147V18.3404V18.5345V18.7293V18.9248V19.121V19.3179V19.5154V19.7136V19.9124V20.1119V20.312V20.5128V20.7142V20.9162V21.1189V21.3222V21.5261V21.7306V21.9357V22.1414V22.3476V22.5545V22.7619V22.97V23.1785V23.3877V23.5974V23.8077V24.0185V24.2298V24.4417V24.6541V24.867V25.0804V25.2944V25.5089V25.7238V25.9393V26.1552V26.3717V26.5886V26.806V27.0238V27.2421V27.4609V27.6801V27.8998V28.1199V28.3404V28.5614V28.7828V29.0046V29.2268V29.4494V29.6724V29.8959V30.1197V30.3439V30.5684V30.7934V31.0187V31.2444V31.4704V31.6968V31.9235V32.1506V32.378V32.6057V32.8338V33.0621V33.2908V33.5198V33.7491V33.9787V34.2085V34.4387V34.6691V34.8998V35.1308V35.362V35.5935V35.8252V36.0572V36.2895V36.5219V36.7546V36.9875V37.2206V37.454V37.6875V37.9212V38.1552V38.3893V38.6236V38.8581V39.0928V39.3276V39.5626V39.7977V40.033V40.2685V40.504V40.7397V40.9756V41.2115V41.4476V41.6838V41.9201V42.1565V42.393V42.6296V42.8662V43.103V43.3398V43.5767V43.8136V44.0506V44.2876V44.5247V44.7619V44.999V45.2362V45.4734V45.7106V45.9479V46.1851V46.4224V46.6596V46.8968V47.1341V47.3712V47.6084V47.8455V48.0826V48.3197V48.5567V48.7936V49.0305V49.2673V49.504V49.7407V49.9773V50.2137V50.4501V50.6864V50.9226V51.1587V51.3946V51.6305V51.8662V52.1018V52.3372V52.5725V52.8076V53.0426V53.2774V53.5121V53.7466V53.9809V54.215V54.4489V54.6826V54.9162V55.1495V55.3826V55.6155V55.8482V56.0807V56.3129V56.5448V56.7766V57.0081V57.2393V57.4702V57.7009V57.9314V58.1615V58.3914V58.6209V58.8502V59.0792V59.3079V59.5362V59.7643V59.992V60.2194V60.4464V60.6731V60.8995V61.1255V61.3512V61.5765V61.8014V62.026V62.2502V62.474V62.6974V62.9204V63.143V63.3652V63.587V63.8084V64.0293V64.2498V64.4699V64.6896V64.9088V65.1275V65.3458V65.5637V65.781V65.9979V66.2144V66.4303V66.6457V66.8607V67.0751V67.2891V67.5025V67.7154V67.9278V68.1396V68.351V68.5617V68.772V68.9817V69.1908V69.3994V69.6074V69.8148V70.0216V70.2279V70.4336V70.6387V70.8431V71.047V71.2503V71.4529V71.6549V71.8563V72.0571V72.2572V72.4566V72.6554V72.8536V73.0511V73.2479V73.4441V73.6396V73.8344V74.0285V74.2219V74.4146V74.6066V74.7978V74.9884V75.1782V75.3674V75.5557V75.7434V75.9303V76.1164V76.3018V76.4864V76.6703V76.8533V77.0356V77.2172V77.3979V77.5778V77.7569V77.9353V78.1128V78.2895V78.4653V78.6404V78.8146V78.9879V79.1604V79.3321V79.5029V79.6729V79.8419V80.0101V80.1775V80.3439V80.5094V80.6741V80.8378V81.0007V81.1626V81.3236V81.4837V81.6428V81.8011V81.9584V82.1147V82.2701V82.4245V82.5779V82.7304V82.882V83.0325V83.1821V83.3306V83.4782V83.6248V83.7703V83.9149V84.0584V84.2009V84.3424V84.4828V84.6222V84.7605V84.8978V85.0341V85.1693V85.3034V85.4364V85.5684V85.6992V85.829V85.9577V86.0853V86.2117V86.3371V86.4613V86.5844V86.7064V86.8273V86.947V87Z" fill="#E2E0E0"/>
<path d="M552.5 114.5C548.168 113.077 545.161 108.58 543 104M561 114.5C556.668 113.077 547 104.5 545.5 99M569 114.5C559 108.5 551 102.5 547.5 90" stroke="#E2E0E0" stroke-width="2.3"/>
</g>
<defs>
<clipPath id="clip0_7_111">
<rect width="1100" height="278" fill="white"/>
</clipPath>
</defs>
</svg>
